<svg xmlns="http://www.w3.org/2000/svg" viewBox="0 0 64 64">
  <defs>
    <linearGradient id="g" x1="0.1" y1="0.9" x2="0.9" y2="0.1">
      <stop offset="0%" stop-color="#1a4fa8"/>
      <stop offset="50%" stop-color="#2575c4"/>
      <stop offset="100%" stop-color="#38b2e8"/>
    </linearGradient>
    <clipPath id="cloud">
      <!-- Cloud shape with multiple bumps matching Nimbus logo style -->
      <path d="
        M 8,46
        C 4,46 2,43 2,40
        C 2,37 4,34 8,34
        C 8,28 12,23 18,22
        C 18,16 23,11 30,11
        C 34,11 38,13 40,17
        C 42,14 46,12 50,13
        C 55,14 59,18 59,24
        C 62,25 64,28 64,32
        C 64,37 60,41 55,41
        L 8,46 Z
      "/>
    </clipPath>
  </defs>
  <rect x="0" y="0" width="64" height="64" fill="url(#g)" clip-path="url(#cloud)"/>
  <!-- White horizontal stripes -->
  <rect x="0" y="20" width="64" height="3" fill="white" opacity="0.8" clip-path="url(#cloud)"/>
  <rect x="0" y="27" width="64" height="3" fill="white" opacity="0.8" clip-path="url(#cloud)"/>
  <rect x="0" y="34" width="64" height="3" fill="white" opacity="0.8" clip-path="url(#cloud)"/>
</svg>
